<svg width="57" height="34" viewBox="0 0 57 34" fill="none" xmlns="http://www.w3.org/2000/svg">
<path d="M4.40566 6.00659H8.49694L12.2676 16.9503C14.1303 12.3337 16.5892 6.19702 16.9898 5.16916C18.2644 1.8997 19.1705 0.693741 22.6686 0.693741H29.7128L26.3055 9.6848L29.0313 16.9503C29.2282 16.3902 29.949 14.7615 31.2573 11.2741C34.7063 2.08136 35.1189 0.512085 39.9321 0.512085H56.6076C56.7529 3.99953 54.7899 5.23462 53.791 5.41628H44.4775L41.9789 11.6828H52.655C52.2913 14.9886 50.4745 16.3297 49.6109 16.587H40.3434L35.1189 30.6185C34.5738 31.6175 32.6839 33.6155 29.4856 33.6155C26.2874 33.6155 24.458 31.4056 23.9432 30.3006L20.6722 23.3076C20.0816 24.9575 18.7732 28.6659 18.2644 30.3006C17.6284 32.344 15.584 33.6155 12.2676 33.6155C9.61452 33.6155 8.07287 31.4056 7.63377 30.3006C5.3017 24.3369 0.582998 12.2641 0.364945 11.6828C0.0923369 10.9562 -0.0995611 9.31214 0.953007 7.84839C1.99794 6.39523 3.04029 6.07735 4.40566 6.00659Z" fill="#2466C5"/>
</svg>
